<?xml version="1.0" encoding="UTF-8"?>
<!-- Generator: Adobe Illustrator 22.0.0, SVG Export Plug-In . SVG Version: 6.00 Build 0)  -->
<svg xmlns="http://www.w3.org/2000/svg" xmlns:xlink="http://www.w3.org/1999/xlink" version="1.1" id="Layer_1" x="0px" y="0px" viewBox="0 0 512 512" style="enable-background:new 0 0 512 512;" xml:space="preserve">
<style type="text/css">
	.st0{fill:#FFFFFF;}
</style>
<g>
	<g id="outline">
		<path class="st0" d="M488,192h-32v-40c0-4.4-3.6-8-8-8c-10.9,0-21.9,0.4-32.6,1.2l1.2,16c7.7-0.6,15.5-0.9,23.4-1.1v237.4    c-61.4,0.2-121.8,15.4-176,44.3V336h-16v105.7c-54.2-28.9-114.6-44.1-176-44.3V160.1c7.9,0.1,15.7,0.5,23.4,1.1l1.2-16    C85.9,144.4,74.9,144,64,144c-4.4,0-8,3.6-8,8v40H24c-4.4,0-8,3.6-8,8v288c0,4.4,3.6,8,8,8h464c4.4,0,8-3.6,8-8V200    C496,195.6,492.4,192,488,192z M32,208h24v197.4c0,4.4,3.6,8,8,8c55.5-0.4,110.5,11.4,160.9,34.6H32V208z M480,480H32v-16h448V480    z M480,448H287c50.4-23.3,105.4-35.1,161-34.6c4.4,0,8-3.6,8-8V208h24V448z"></path>
		<path class="st0" d="M359.2,93.2c-2.9-17-17.4-29.6-34.6-30.1c-4,0-7.9,0.7-11.7,2.1c-6.1-10.5-17.3-17-29.5-17.2    c-10.8,0.3-20.9,5.5-27.4,14.1c-6.5-8.6-16.6-13.8-27.4-14.1c-12.2,0.2-23.3,6.7-29.5,17.2c-3.7-1.4-7.7-2.1-11.7-2.1    c-17.2,0.5-31.7,13.1-34.6,30.1c-20.1,1-35.7,18-35.1,38.1c0,4.6,0.8,9.1,2.3,13.4c-17.5,13-21.2,37.8-8.2,55.3    c1.8,2.4,3.8,4.5,6,6.5c-4.5,6.7-7,14.6-7,22.6c-0.2,14.5,7.8,27.9,20.7,34.7c-0.1,1-0.1,2-0.1,3c-0.7,20.3,15.1,37.3,35.4,38.1    c6.9,0,13.6-2.2,19.3-6.2c10.6,19.7,35,27,54.7,16.5c6.2-3.3,11.4-8.2,15.2-14.2c11.8,18.9,36.7,24.7,55.6,12.9    c6-3.7,10.9-9,14.2-15.2c5.6,4,12.4,6.2,19.3,6.2c20.3-0.8,36.1-17.8,35.4-38.1c0-1,0-2-0.1-3c12.9-6.7,20.9-20.1,20.7-34.7    c0-8.1-2.4-16-7-22.6c16.6-14.2,18.5-39.2,4.3-55.8c-1.9-2.2-4.1-4.3-6.5-6c1.5-4.3,2.3-8.9,2.3-13.4    C394.9,111.2,379.3,94.2,359.2,93.2z M248,274.4c0.9,15.4-10.9,28.6-26.3,29.6c-12.2-0.6-22.5-9.4-25.1-21.4    c-1.1-4.3-5.5-6.9-9.7-5.8c-1.9,0.5-3.6,1.7-4.7,3.3c-3.3,5.3-9.1,8.7-15.4,8.8c-11.4-0.8-20.1-10.7-19.4-22.1    c0-2.1,0.3-4.2,0.9-6.2c1.1-4.3-1.5-8.6-5.7-9.8c-0.1,0-0.1,0-0.2,0c-9.5-2.8-15.9-11.7-15.5-21.7c-0.1-7,3-13.7,8.4-18.1    c3.5-2.7,4.1-7.8,1.3-11.2c-0.9-1.1-2.1-2-3.4-2.5c-11.5-5.4-16.4-19.1-11-30.6c2.3-4.9,6.2-8.8,11.1-11.1    c4.1-1.6,6.2-6.2,4.6-10.3c-0.2-0.5-0.4-0.9-0.7-1.3c-2.3-3.8-3.5-8.2-3.5-12.7c-0.7-11.5,8-21.3,19.4-22.1c1.6,0,3.2,0.3,4.8,0.8    c4.2,1.2,8.7-1.2,9.9-5.5c0.2-0.8,0.3-1.7,0.3-2.5c0-0.3,0-0.6-0.1-0.8c-0.7-11.5,8-21.3,19.4-22.1c3.8,0,7.5,1.3,10.6,3.6    c3.5,2.6,8.6,1.9,11.2-1.6c0.5-0.7,0.9-1.5,1.2-2.4c2.2-8.3,9.6-14.2,18.2-14.6c9.5,0.8,17.4,7.8,19.4,17.1V274.4z M378.8,197.3    c-4.1,1.6-6.2,6.2-4.6,10.3c0.5,1.3,1.4,2.5,2.5,3.4c5.4,4.5,8.5,11.1,8.4,18.1c0.4,9.9-6,18.9-15.5,21.7c-4.3,1-7,5.3-6,9.6    c0,0.1,0,0.1,0,0.2c0.6,2,0.9,4.1,0.9,6.2c0.7,11.4-8,21.3-19.4,22.1c-6.3-0.1-12.1-3.5-15.4-8.8c-2.5-3.7-7.4-4.7-11.1-2.2    c-1.6,1.1-2.8,2.8-3.3,4.7c-2.5,12-12.8,20.8-25.1,21.4c-15.4-1-27.1-14.2-26.3-29.6V80.9c2.1-9.3,10-16.1,19.4-16.9    c8.6,0.4,15.9,6.3,18.2,14.6c1.3,4.2,5.8,6.5,10,5.2c0.8-0.3,1.6-0.7,2.4-1.2c3-2.3,6.8-3.6,10.6-3.6    c11.3,0.7,19.9,10.4,19.4,21.7c0,0.2-0.1,1-0.1,1.2c-0.2,4.4,3.3,8.1,7.7,8.3c0.8,0,1.7-0.1,2.5-0.3c1.5-0.5,3.1-0.8,4.8-0.8    c11.4,0.8,20.1,10.7,19.4,22.1c0,4.5-1.2,8.8-3.5,12.7c-2.3,3.8-1.2,8.7,2.6,11c0.4,0.3,0.9,0.5,1.3,0.7    c11.5,5.4,16.5,19.1,11.1,30.6C387.5,191,383.6,195,378.8,197.3L378.8,197.3z"></path>
		<path class="st0" d="M216,192c0-9.2-4.1-18-11.1-24c7-6,11-14.8,11.1-24h-16c0,8.8-7.2,16-16,16s-16-7.2-16-16h-16    c0,17.7,14.3,32,32,32c8.8,0,16,7.2,16,16H216z"></path>
		<path class="st0" d="M200,224v16c7.8-1.1,14.9,4.3,16,12.1c0.2,1.3,0.2,2.6,0,3.9v8h16v-8c1.2-16.5-11.3-30.8-27.8-32    C202.8,223.9,201.4,223.9,200,224z"></path>
		<path class="st0" d="M152,184v16c7.2,0,13.5,4.9,15.4,11.8c-4.7,5.7-7.3,12.8-7.4,20.2c0,17.7,14.3,32,32,32v-16    c-8.8,0-16-7.2-16-16s7.2-16,16-16v-16c-3.9,0-7.7,0.8-11.3,2.2C175.4,191.1,164.3,184,152,184z"></path>
		<path class="st0" d="M184,96v16c8.8,0,16,7.2,16,16h16c0-8.8,7.2-16,16-16V96c-9.2,0-18,4.1-24,11.1C202,100.1,193.2,96,184,96z"></path>
		<path class="st0" d="M280,256v8h16v-8c-1.1-7.8,4.3-14.9,12.1-16c1.3-0.2,2.6-0.2,3.9,0v-16c-16.5-1.2-30.8,11.3-32,27.8    C279.9,253.2,279.9,254.6,280,256z"></path>
		<path class="st0" d="M331.3,202.2c-3.6-1.4-7.4-2.1-11.3-2.2v16c8.8,0,16,7.2,16,16s-7.2,16-16,16v16c17.7,0,32-14.3,32-32    c0-7.4-2.6-14.5-7.4-20.2c1.9-6.9,8.2-11.8,15.4-11.8v-16C347.7,184,336.6,191.1,331.3,202.2z"></path>
		<path class="st0" d="M328,160c-8.8,0-16-7.2-16-16h-16c0,9.2,4.1,18,11.1,24c-7,6-11,14.8-11.1,24h16c0-8.8,7.2-16,16-16    c17.7,0,32-14.3,32-32h-16C344,152.8,336.8,160,328,160z"></path>
		<path class="st0" d="M296,128h16c0-8.8,7.2-16,16-16V96c-9.2,0-18,4.1-24,11.1c-6-7-14.8-11-24-11.1v16    C288.8,112,296,119.2,296,128z"></path>
		<path class="st0" d="M189,357.7c6,2.1,12.3,3.2,18.7,3.2c4.9,0.1,9.8-0.7,14.4-2.4l-5.7-15c-7.3,2.1-15,1.7-22.1-1    c-8.7-2.7-15.7-9.2-19.2-17.6l-15,5.7C165.2,343.5,175.8,353.4,189,357.7z"></path>
		<path class="st0" d="M135,354.1c14,36.7,55.1,55.2,91.8,41.2l-5.7-15c-28.5,10.8-60.3-3.5-71.2-32L135,354.1z"></path>
		<path class="st0" d="M348.8,330.7l-15-5.7c-6.3,16.5-24.8,24.8-41.3,18.5l-5.7,15C311.6,367.9,339.4,355.5,348.8,330.7    C348.8,330.7,348.8,330.7,348.8,330.7z"></path>
		<path class="st0" d="M310.4,400c29.6,0,56.1-18.2,66.6-45.9l-15-5.7c-10.9,28.5-42.7,42.8-71.2,32l-5.7,15    C293.2,398.4,301.8,400,310.4,400z"></path>
	</g>
</g>
</svg>
