<svg xmlns="http://www.w3.org/2000/svg" xmlns:xlink="http://www.w3.org/1999/xlink" id="Layer_1" x="0px" y="0px" viewBox="0 0 512 512" style="enable-background:new 0 0 512 512;" xml:space="preserve"><style type="text/css">	.st0{fill:#FFFFFF;}</style><g>	<g id="Page-1">		<g id="_x30_30---Messy-Books">			<path id="Shape" class="st0" d="M201.5,63.7l193.3,34.1c0.5,0.1,1,0.1,1.5,0.1c4.4,0,8.1-3.4,8.5-7.8c0.4-4.4-2.7-8.4-7-9.1    l-193.3-34c-4.6-0.8-9.1,2.3-9.9,6.9C193.7,58.5,196.8,62.9,201.5,63.7L201.5,63.7z"></path>			<path id="Shape_1_" class="st0" d="M230.7,94.8c-4.6-0.7-8.9,2.4-9.7,7s2.2,8.9,6.7,9.8l126.1,22.2c0.5,0.1,1,0.1,1.5,0.1    c4.4,0,8.1-3.4,8.5-7.8c0.4-4.4-2.7-8.4-7-9.1L230.7,94.8z"></path>			<path id="Shape_2_" class="st0" d="M177.3,250l176.5,31.1c1,0.2,2,0.3,3,0.3c8.3,0,15.4-5.9,16.8-14.1l14.8-84    c1.6-9.3-4.6-18.1-13.8-19.8L198,132.4c-9.3-1.6-18.1,4.6-19.8,13.8l-14.8,84C161.8,239.6,168,248.4,177.3,250L177.3,250z     M195.1,149.2l176.5,31.1l-14.8,84l-176.5-31.1L195.1,149.2z"></path>			<path id="Shape_3_" class="st0" d="M49.2,456.1c6.8,36.8,42,61.2,78.8,54.8l269-47.4c8.1-1.4,14.9-6.7,18.5-14.1    c24.8-7.2,43.3-27.7,47.9-53.1c0-0.2,0.2-0.3,0.2-0.5L511,126.9c3.2-18.2-1.1-36.9-11.9-51.9c-10.8-15-27.2-24.9-45.5-27.6    L186.7,0.4c-6.6-1.2-13.5,0.3-19,4.2c-5.6,3.8-9.5,9.8-10.6,16.5l-12.5,71l-85.5,15.1c-34.4,5.5-59.3,35.6-58.3,70.4    c0.1,3,0.4,6.1,1,9.1l47.4,268.9C49,455.8,49.1,455.9,49.2,456.1L49.2,456.1z M125.1,494.1c-14.5,2.5-29.4-1.3-40.9-10.5    c-11.6-9.2-18.6-23-19.2-37.8c-0.6-22.9,14-43.4,35.8-50.5c3.8,4.4,9,7.4,14.7,8.4l15.1,2.7l-20.3,3.6    c-10.1,1.8-18.8,7.9-23.9,16.9c-5,8.9-5.8,19.6-2.1,29.2c5.3,13.2,18.2,21.8,32.4,21.6c2.1,0,4.3-0.2,6.4-0.6l204-36l49.1,8.6    L125.1,494.1z M278.1,432.5l-157.9,27.9c-8.2,1.6-16.5-2.7-19.9-10.3c-1.9-4.8-1.5-10.2,1-14.7c2.5-4.5,6.9-7.6,12-8.5l66.3-11.8    L278.1,432.5z M428.3,423.9c-11.5,9.2-26.4,13-40.9,10.5L118.5,387c-4.4-0.7-7.5-4.7-7.1-9.1c0.4-4.4,4.1-7.8,8.5-7.8    c0.5,0,1,0,1.5,0.1l267.9,47.2c16.3,3.1,32.5-5.7,38.7-21c3.7-9.5,3-20.2-2-29.2s-13.8-15.1-23.9-16.9l-268.9-47.4    c-4.6-0.8-7.7-5.2-6.9-9.9c0.8-4.6,5.2-7.7,9.9-6.9l266.9,47.1c26,4,44.9,26.6,44.4,52.9C446.9,400.9,439.9,414.7,428.3,423.9    L428.3,423.9z M399.3,367.2c5,0.9,9.4,4,11.9,8.5c2.5,4.5,2.8,9.8,0.9,14.6c-3.4,7.6-11.6,11.9-19.8,10.3l-259.5-45.8l6-33.6    L399.3,367.2z M173.8,24.2c0.4-2.3,1.7-4.3,3.6-5.5c1.8-1.3,4.1-1.8,6.3-1.4l252.1,44.5l-7.7,43.8c-0.4,2.2,0.1,4.5,1.4,6.4    c1.3,1.9,3.3,3.1,5.5,3.5c0.5,0.1,1,0.1,1.5,0.1c4.1,0,7.7-3,8.4-7l7.7-43.7c25,4.8,42.9,26.9,42.3,52.4    c-0.1,2.3-0.4,4.5-0.7,6.7l-39.6,225c-10.4-16.6-27.2-28.2-46.4-32.1l27.7-157.3c0.6-3-0.5-6.2-2.8-8.2s-5.6-2.6-8.5-1.5    c-2.9,1.1-5,3.7-5.4,6.8l-27.7,157.2l-252.1-44.5c-2.9-0.5-5.8-0.5-8.7,0.1L173.8,24.2z M17.6,176.9C17,150.7,35.9,128,61.9,124    l79.4-14l-31.7,180.2c-1.8,10.7,3.2,21.3,12.6,26.6l-6.5,36.7c-10.7,1.7-19.2,10-21,20.7c-0.3,1.7-0.4,3.5-0.4,5.2    c-15.1,5.4-27.9,15.7-36.4,29.2L18.4,183.8C18,181.5,17.8,179.2,17.6,176.9L17.6,176.9z"></path>		</g>	</g></g></svg>