<?xml version="1.0" encoding="UTF-8"?>
<!-- Generator: Adobe Illustrator 22.0.0, SVG Export Plug-In . SVG Version: 6.00 Build 0)  -->
<svg xmlns="http://www.w3.org/2000/svg" xmlns:xlink="http://www.w3.org/1999/xlink" version="1.1" id="_x33_0" x="0px" y="0px" viewBox="0 0 512 512" style="enable-background:new 0 0 512 512;" xml:space="preserve">
<style type="text/css">
	.st0{fill:#FFFFFF;}
</style>
<g>
	<g>
		<path class="st0" d="M384,8c-20.9,0-41.3,5.5-59.3,15.7C312.3,13.8,296.7,8,280,8c-9.1,0-17.8,1.8-25.8,4.9    C240.7,9.7,226.8,8,212.8,8H87.9C43.8,8,8,43.9,8,88c0,21.4,8.3,41.5,23.4,56.6c8.8,8.8,19.4,15.2,30.8,19.1    C55.9,184.2,40,240,40,280v8h32v46.5c0,40.5,33,73.5,73.5,73.5c4.8,0,9.7-0.5,14.4-1.4l40.1-8v17.8c0,6.3-3.7,12.1-9.5,14.6    l-29.2,13c-20.4,9.1-35.2,26.7-40.6,48.3l-2.9,11.7h237.4l-5.6-16.8c-6.3-18.8-20.2-33.4-37.5-41.1v-74.8l16-16v46.3l37.5,90.1    c3.1,7.5,10.4,12.3,18.5,12.3s15.3-4.8,18.5-12.3l37.5-90.1V273.5c9-23.6,20.2-39,31-53.9c17-23.4,33-45.5,33-91.6    C504,61.8,450.2,8,384,8L384,8z M329.1,53.3c-13.5,10.4-22.8,25.9-24.7,43.7c-14,3.4-24.4,16-24.4,31h16c0-8.8,7.2-16,16-16    s16,7.2,16,16h16c0-14.7-10-26.9-23.5-30.7C323.8,74,343.8,56,368,56c26.5,0,48,21.5,48,48c0,4.2-0.7,8.3-1.8,12.3    c-13.1,6.6-22.2,20-22.2,35.7v8h16v-8c0-13.2,10.8-24,24-24s24,10.8,24,24s-10.8,24-24,24H216c-17.6,0-32-14.4-32-32    s14.4-32,32-32s32,14.4,32,32h16c0-22.8-15.9-41.8-37.2-46.7C225,91.7,224,85.9,224,80c0-30.9,25.1-56,56-56    C300.8,24,319.4,35.4,329.1,53.3z M376,216v48h-34.6c-9.5-23.4-21.1-39.6-31.5-53.8c-4.4-6.1-8.7-12-12.5-18.2H352    C365.2,192,376,202.8,376,216z M348,408h72l-20,48h-32L348,408z M344,392v-48h32v48H344z M392,392v-48h32v48H392z M344,328v-16h80    v16H344z M344,296v-16h80v16H344z M24,88c0-35.3,28.7-64,63.9-64h124.9c6.9,0,13.7,0.4,20.5,1.3C217.9,38.5,208,58.1,208,80    c0,5.6,0.7,11.1,2,16.4c-23.6,3-42,23.2-42,47.6c0,2.8,0.3,5.6,0.8,8.3c-1.3-0.2-2.7-0.3-4-0.3H88c-17.1,0-33.2-6.7-45.3-18.8    S24,105.1,24,88z M332.7,488h-97.4c8.3-19.3,27.4-32,48.7-32S324.4,468.7,332.7,488L332.7,488z M284,440    c-29.8,0-56.1,19-65.5,47.2l-0.3,0.8h-79.3c5.5-13,15.7-23.5,28.8-29.4l29.2-13c11.5-5.1,19-16.6,19-29.2v-21l17.6-3.5l-3.1-15.7    l-73.6,14.7c-3.7,0.7-7.5,1.1-11.3,1.1c-25.6,0-47.3-16.8-54.8-40h17.5c25.1,0,47.7-14,58.9-36.4l-14.3-7.2    c-8.5,17-25.6,27.6-44.6,27.6H88.1c0-0.5-0.1-1-0.1-1.5V272H56.2c1.9-37.5,16.3-87.1,21.7-104.7c3.3,0.4,6.7,0.7,10.1,0.7h76.8    c7.6,0,14,5.2,15.6,12.5l15,67.4l18-18c3.8-3.8,9-6,14.9-6c5.3,0,10.2,2.1,14,5.8c3.7,3.7,5.8,8.7,5.8,14.5    c0,15.7-6.1,30.5-17.2,41.6L220.7,296l75.3,75.3v69.8C292.1,440.4,288.1,440,284,440L284,440z M304,356.7L243.3,296    c13.4-14,20.7-32.3,20.7-52.2c0-9.6-3.7-18.5-10.5-25.3S237.8,208,227.8,208c-8.5,0-16.6,2.9-23.1,8.2l-6.1-27.6    c5.4,2.1,11.3,3.3,17.4,3.3h62.9c5.3,9.8,11.5,18.5,18.1,27.6c10.8,14.9,22,30.3,31,53.9v59.2L304,356.7z M380.3,485.5l-5.6-13.5    h18.7l-5.6,13.5C386.4,488.5,381.6,488.5,380.3,485.5L380.3,485.5z M458.1,210.2c-10.3,14.3-21.9,30.4-31.5,53.8H392v-48    c0-9-3.1-17.3-8.2-24H432c22.1,0,40-17.9,40-40s-17.9-40-40-40c-0.2,0-0.4,0.1-0.7,0.1c0.3-2.7,0.7-5.3,0.7-8.1    c0-35.3-28.7-64-64-64c-8.9,0-17.4,1.8-25.1,5.2c-1.9-3.4-4-6.6-6.3-9.6C351.2,28,367.4,24,384,24c57.3,0,104,46.7,104,104    C488,168.9,474.8,187.1,458.1,210.2z"></path>
		<path class="st0" d="M128,214.1c-3,6.1-9.2,9.9-16,9.9s-13-3.8-16-9.9l-0.8-1.7l-14.3,7.2l0.8,1.7C87.5,232.8,99.1,240,112,240    s24.5-7.2,30.3-18.7l0.8-1.7l-14.3-7.2L128,214.1z"></path>
	</g>
</g>
</svg>
