<svg xmlns="http://www.w3.org/2000/svg" xmlns:xlink="http://www.w3.org/1999/xlink" id="_x31_-outline-expand" x="0px" y="0px" viewBox="0 0 512 512" style="enable-background:new 0 0 512 512;" xml:space="preserve"><style type="text/css">	.st0{fill:#FFFFFF;}</style><g>	<path class="st0" d="M509.6,133c-7-19-28.1-30.4-48-25.3l-27.9-17c-10.5-6.4-23.2-7.6-34.9-3.4l-101.9,37.1L213.2,6.1  c-2.1-3-6-4.2-9.4-2.9l-45.6,16.6c-4.2,1.5-6.4,6.2-4.8,10.4l47,129.4L99,196.4l-54.4-60.9c-2.2-2.5-5.7-3.4-8.8-2.2l-30.5,11  c-4.2,1.5-6.4,6.2-4.8,10.4l44.3,121.7c1.2,3.2,4.2,5.3,7.6,5.3h0.1l171.6-2.1c0.9,0,1.8-0.2,2.7-0.5l15.2-5.5l44.3,121.7  c1.2,3.3,4.3,5.3,7.6,5.3c0.9,0,1.9-0.2,2.8-0.5l45.7-16.6c3.4-1.2,5.6-4.6,5.3-8.3l-11.3-136l149-54.2  c15.9-5.8,26.6-21.1,26.6-38.1C512,142.3,511.2,137.6,509.6,133L509.6,133z M171.3,32.2l32.2-11.7l77.6,109.6l-65.5,23.8  L171.3,32.2z M40.6,217.6l-22.1-60.8l17.7-6.4l46.5,52L40.6,217.6z M298.7,382.2L243.3,230l73.7-26.8l13.9,167.3L298.7,382.2z   M479.9,169.8l-145,52.8l-2.6-31.3c-0.2-2.5-1.6-4.8-3.7-6.2s-4.8-1.6-7.1-0.8l-91.3,33.2c-2,0.7-3.7,2.2-4.6,4.2  c-0.9,2-1,4.2-0.3,6.2l11.1,30.4l-13.9,5.1l-164.4,2l-11.9-32.7l358.2-130.3c7-2.5,14.7-1.8,21,2l7.8,4.7l-23.8,8.7l5.5,15.2  l35.9-13.1l5.5,3.3c2.1,1.3,4.6,1.5,6.9,0.7c12.9-4.6,26.7,2.4,31.2,14.4c1,2.8,1.5,5.5,1.5,8.3  C495.8,157.1,489.4,166.3,479.9,169.8L479.9,169.8z"></path>	<path class="st0" d="M356.1,137.3l15.2-5.5l5.5,15.2l-15.2,5.5L356.1,137.3z"></path>	<path class="st0" d="M325.7,148.4l15.2-5.5l5.5,15.2l-15.2,5.5L325.7,148.4z"></path>	<path class="st0" d="M295.3,159.5l15.2-5.5l5.5,15.2l-15.2,5.5L295.3,159.5z"></path>	<path class="st0" d="M264.8,170.5L280,165l5.5,15.2l-15.2,5.5L264.8,170.5z"></path>	<path class="st0" d="M234.4,181.6l15.2-5.5l5.5,15.2l-15.2,5.5L234.4,181.6z"></path>	<path class="st0" d="M203.9,192.7l15.2-5.5l5.5,15.2l-15.2,5.5L203.9,192.7z"></path>	<path class="st0" d="M173.5,203.8l15.2-5.5l5.5,15.2L179,219L173.5,203.8z"></path>	<path class="st0" d="M143,215l15.2-5.5l5.5,15.2l-15.2,5.5L143,215z"></path>	<path class="st0" d="M112.6,226l15.2-5.5l5.5,15.2l-15.2,5.5L112.6,226z"></path>	<path class="st0" d="M150.8,355.5h50.1c3.4,9.4,12.3,16.2,22.8,16.2c13.4,0,24.3-10.9,24.3-24.3s-10.9-24.3-24.3-24.3  c-10.5,0-19.4,6.8-22.8,16.2h-50.1c-26.8,0-48.6,21.8-48.6,48.6c0,26.8,21.8,48.6,48.6,48.6h137.6v-16.2H150.8  c-17.9,0-32.4-14.5-32.4-32.4C118.4,370,132.9,355.5,150.8,355.5z M223.6,339.3c4.5,0,8.1,3.6,8.1,8.1s-3.6,8.1-8.1,8.1  s-8.1-3.6-8.1-8.1S219.2,339.3,223.6,339.3z"></path>	<path class="st0" d="M304.6,420.3h16.2v16.2h-16.2V420.3z"></path>	<path class="st0" d="M405.8,420.3H337v16.2h68.8c11.2,0,20.2,9.1,20.2,20.2c0,11.2-9.1,20.2-20.2,20.2h-255v16.2h255  c20.1,0,36.4-16.3,36.4-36.4C442.2,436.6,425.9,420.3,405.8,420.3z"></path>	<path class="st0" d="M37.4,460.7c-13.4,0-24.3,10.9-24.3,24.3s10.9,24.3,24.3,24.3c10.5,0,19.4-6.8,22.8-16.2h74.4v-16.2H60.2  C56.9,467.5,48,460.7,37.4,460.7z M37.4,493.1c-4.5,0-8.1-3.6-8.1-8.1s3.6-8.1,8.1-8.1s8.1,3.6,8.1,8.1S41.9,493.1,37.4,493.1z"></path></g></svg>