<?xml version="1.0" encoding="UTF-8"?>
<!-- Generator: Adobe Illustrator 22.0.0, SVG Export Plug-In . SVG Version: 6.00 Build 0)  -->
<svg xmlns="http://www.w3.org/2000/svg" xmlns:xlink="http://www.w3.org/1999/xlink" version="1.1" id="Layer_5" x="0px" y="0px" viewBox="0 0 512 512" style="enable-background:new 0 0 512 512;" xml:space="preserve">
<style type="text/css">
	.st0{fill:#FFFFFF;}
</style>
<g>
	<g>
		<path class="st0" d="M64,144h16c0-4.4,3.6-8,8-8v-16C74.8,120,64,130.8,64,144z"></path>
		<path class="st0" d="M136,160c0-13.2-10.8-24-24-24v16c4.4,0,8,3.6,8,8H136z"></path>
		<path class="st0" d="M56,192v16c13.2,0,24-10.8,24-24H64C64,188.4,60.4,192,56,192z"></path>
		<path class="st0" d="M440,464c13.2,0,24-10.8,24-24s-10.8-24-24-24s-24,10.8-24,24S426.8,464,440,464z M440,432c4.4,0,8,3.6,8,8    s-3.6,8-8,8s-8-3.6-8-8S435.6,432,440,432z"></path>
		<path class="st0" d="M440,280c13.2,0,24-10.8,24-24s-10.8-24-24-24s-24,10.8-24,24S426.8,280,440,280z M440,248c4.4,0,8,3.6,8,8    c0,4.4-3.6,8-8,8s-8-3.6-8-8S435.6,248,440,248z"></path>
		<path class="st0" d="M440,96c13.2,0,24-10.8,24-24s-10.8-24-24-24s-24,10.8-24,24S426.8,96,440,96z M440,64c4.4,0,8,3.6,8,8    s-3.6,8-8,8s-8-3.6-8-8S435.6,64,440,64z"></path>
		<path class="st0" d="M376.6,264c4,31.5,30.9,56,63.4,56c35.3,0,64-28.7,64-64s-28.7-64-64-64c-32.6,0-59.5,24.5-63.4,56h-86.3    c1.5-5.2,2.7-10.6,3.7-16H320c13.2,0,24-10.8,24-24v-32c0-4.4,3.6-8,8-8h9.5c3.3,9.3,12.1,16,22.5,16c13.2,0,24-10.8,24-24    s-10.8-24-24-24c-10.4,0-19.2,6.7-22.5,16H352c-13.2,0-24,10.8-24,24v32c0,4.4-3.6,8-8,8h-24.2c0.1-2.7,0.2-5.3,0.2-8    c0-29-8.9-56.3-24-79.1V88c0-4.4,3.6-8,8-8h96.6c4,31.5,30.9,56,63.4,56c35.3,0,64-28.7,64-64S475.3,8,440,8    c-32.6,0-59.5,24.5-63.4,56H280c-13.2,0-24,10.8-24,24v20.8c-21.9-23-51.3-39-84.6-43.5c-6.9-0.9-13.9,1.2-19.2,5.8    c-2.4,2.1-4.4,4.8-5.7,7.6c-8.7-9-20.9-14.7-34.5-14.7c-17.3,0-33.1,9.3-41.6,24c-25.7,0.8-46.4,22-46.4,48c0,6,1.2,12,3.5,17.6    C15.3,162.6,8,176.7,8,192c0,15.7,7.6,29.7,19.4,38.4C25.2,236,24,242,24,248c0,24,17.8,43.9,40.8,47.4    c2.4,12.4,9.6,25.7,13.7,32.6H72c-13.2,0-24,10.8-24,24c0,11.1,7.6,20.3,17.8,23.1c-1.1,2.8-1.8,5.8-1.8,8.9    c0,11.1,7.6,20.3,17.8,23.1c-1.1,2.8-1.8,5.8-1.8,8.9c0,10.4,6.7,19.2,16,22.5v9.5c0,30.9,25.1,56,56,56s56-25.1,56-56v-9.5    c9.3-3.3,16-12.1,16-22.5c0-3.2-0.6-6.2-1.8-8.9c10.2-2.8,17.8-12,17.8-23.1c0-3.2-0.6-6.2-1.8-8.9c10.2-2.8,17.8-12,17.8-23.1    c0-13.2-10.8-24-24-24h56c4.4,0,8,3.6,8,8v88c0,13.2,10.8,24,24,24h56.6c4,31.5,30.9,56,63.4,56c35.3,0,64-28.7,64-64    s-28.7-64-64-64c-32.6,0-59.5,24.5-63.4,56H320c-4.4,0-8-3.6-8-8v-88c0-13.2-10.8-24-24-24h-36.4c5.2-5,10-10.3,14.4-16H320    c4.4,0,8,3.6,8,8v32c0,13.2,10.8,24,24,24h9.5c3.3,9.3,12.1,16,22.5,16c13.2,0,24-10.8,24-24s-10.8-24-24-24    c-10.4,0-19.2,6.7-22.5,16H352c-4.4,0-8-3.6-8-8v-32c0-13.2-10.8-24-24-24h-43.4c3-5.2,5.6-10.5,8-16H376.6z M440,208    c26.5,0,48,21.5,48,48s-21.5,48-48,48s-48-21.5-48-48S413.5,208,440,208z M384,152c4.4,0,8,3.6,8,8s-3.6,8-8,8s-8-3.6-8-8    S379.6,152,384,152z M440,24c26.5,0,48,21.5,48,48s-21.5,48-48,48s-48-21.5-48-48S413.5,24,440,24z M440,392c26.5,0,48,21.5,48,48    s-21.5,48-48,48s-48-21.5-48-48S413.5,392,440,392z M384,344c4.4,0,8,3.6,8,8s-3.6,8-8,8s-8-3.6-8-8S379.6,344,384,344z M160,360    V196.3l15-10l16,16c1.2,1.2,2.5,2.4,3.9,3.5L169.2,360H160z M72,344h24v-18.4l-1.3-2c-3.3-4.9-10.7-17.8-13.5-28.4    c22.1-4.3,38.9-23.8,38.9-47.1h-16c0,17.6-14.4,32-32,32s-32-14.4-32-32c0-3.5,0.6-6.9,1.7-10.2c4.5,1.4,9.3,2.2,14.3,2.2    c26.5,0,48-21.5,48-48H88c0,17.6-14.4,32-32,32s-32-14.4-32-32c0-11.9,6.7-22.8,17.5-28.3l7.6-3.9l-4.4-7.3    c-3.1-5.2-4.7-10.7-4.7-16.4c0-17.6,14.4-32,32-32c0.3,0,0.6,0.1,0.9,0.1c0.6,0.1,1.1,0.2,1.7,0.2l5.7,0.5l2.3-5.3    C87.6,87.6,99.2,80,112,80c17.6,0,32,14.4,32,32v248H88H72c-4.4,0-8-3.6-8-8S67.6,344,72,344z M152,488c-22.1,0-40-17.9-40-40v-8    h80v8C192,470.1,174.1,488,152,488z M200,424h-96c-4.4,0-8-3.6-8-8s3.6-8,8-8h96c4.4,0,8,3.6,8,8S204.4,424,200,424z M216,392h-16    h-96H88c-4.4,0-8-3.6-8-8s3.6-8,8-8h128c4.4,0,8,3.6,8,8S220.4,392,216,392z M212.2,320.9l-4.2,2.3V344h24c4.4,0,8,3.6,8,8    s-3.6,8-8,8h-16h-30.6l24.4-146.2c4.6,1.5,9.4,2.2,14.2,2.2c13.2,0,24-10.8,24-24s-10.8-24-24-24h-2.4c-11.4,0-21,7.8-23.4,18.8    L177,165.7L160,177V89.1c0-2.3,1-4.5,2.7-6c1.8-1.6,4.2-2.3,6.5-1.9C232.4,89.7,280,144.2,280,208    C280,255.3,254,298.6,212.2,320.9L212.2,320.9z M212.5,197.7l1.2-7.1c0.6-3.9,4-6.7,7.9-6.7h2.4c4.4,0,8,3.6,8,8s-3.6,8-8,8    C220,200,216.1,199.2,212.5,197.7L212.5,197.7z"></path>
	</g>
</g>
</svg>
