<?xml version="1.0" encoding="UTF-8"?>
<!-- Generator: Adobe Illustrator 22.0.0, SVG Export Plug-In . SVG Version: 6.00 Build 0)  -->
<svg xmlns="http://www.w3.org/2000/svg" xmlns:xlink="http://www.w3.org/1999/xlink" version="1.1" id="Capa_1" x="0px" y="0px" viewBox="0 0 512 512" style="enable-background:new 0 0 512 512;" xml:space="preserve">
<style type="text/css">
	.st0{fill:#FFFFFF;}
</style>
<g>
	<path class="st0" d="M84.7,512h342.7c11.4,0,20.6-9.2,20.6-20.6v-19.6c0-4.1-3.4-7.5-7.5-7.5s-7.5,3.4-7.5,7.5v19.6   c0,3.1-2.5,5.6-5.6,5.6h-42.5v-66.2c0-4.1-3.4-7.5-7.5-7.5s-7.5,3.4-7.5,7.5V497H142.2v-66.2c0-4.1-3.4-7.5-7.5-7.5   s-7.5,3.4-7.5,7.5V497H84.7c-3.1,0-5.6-2.5-5.6-5.6v-71.1c0-28.9,20.5-47.9,34.3-53.6l55.8-21.8c8.7,15.3,54.1,95.8,73,129.3   c6.1,10.8,21.5,10.8,27.6,0c2.9-5.2,68.5-121.3,72.9-129.2c58.2,22.5,56,21.5,59,23.1c15.5,8.1,31.2,27.3,31.2,52.1v16.5   c0,4.1,3.4,7.5,7.5,7.5s7.5-3.4,7.5-7.5v-16.5c0-33.2-21.1-56-39.3-65.5c-4.1-2.1,2.4,0.6-105.2-41.1V294   c17.2-12.6,29.1-31.9,31.7-54.1c13-1.1,24.6-8.6,30.4-20.2c-0.9,10.9,7.7,20.7,19.1,20.7h21.2c12.6,0,21.7-11.9,18.5-24l0,0   l-8.7-33.2c1.9-3.4,2.9-7.2,2.9-11.3c0-10.3-6.7-19-15.9-22.1V80.6l0,0c0-6.5-3.6-12.4-9.5-15.4l0,0L269.2,3.1   C261-1,251.1-1,242.9,3.1L118.7,65.3c-5.8,2.9-9.5,8.8-9.5,15.4c0,6.5,3.6,12.4,9.5,15.4l33.7,16.9v62c0,1.8,0.2,3.5,0.5,5.2   c-6.4,6.8-10.1,15.7-10.1,24.6c0,18.1,14.5,33.6,34,35.3c2.6,21.8,14.1,41.2,31.7,54v19.4c0,0-97.5,38.1-100.7,39.3   c0,0-0.1,0-0.1,0.1c-21,8.7-43.7,33.5-43.7,67.5v71.1C64.1,502.8,73.3,512,84.7,512L84.7,512z M229.8,421.8l-18.6-33   c2.5,1.4,5.5,2.3,8.6,2.3c4.3,0,8.3-1.5,11.5-4.3l4.3,4.3L229.8,421.8z M267.1,348.2c-1.3,1.3-2.5,3.1-3.3,4.6h-15.5   c-0.7-1.5-2-3.3-3.3-4.6l-24.9-24.9c2.2-2.6,3.4-5.8,3.4-9.4v-11.3c10.6,4.6,21.8,6.7,33.5,6.7c11.1,0,21.8-2.3,31.4-6.5V314   c0,3.6,1.3,6.9,3.4,9.5L267.1,348.2z M270,376l-5,5h-18.2l-4.9-4.9l3.1-3.1c1.6-1.6,2.8-3.5,3.6-5.2h14.9c0.8,1.7,2,3.6,3.6,5.2   L270,376z M256.7,466.9c-0.3,0.6-1.2,0.6-1.5,0l-14-24.9l8.7-46h12l8.8,46.3L256.7,466.9z M282.1,422l-5.9-31l4.5-4.5   c3.2,2.9,7.3,4.5,11.7,4.5c3.1,0,6-0.8,8.5-2.2L282.1,422z M305.8,330.8l22.8,8.8c-0.8,1.4-0.5,0.8-1.6,2.7l-32.9,32.9   c-1,1-2.6,1-3.6,0l-12.9-12.9c-0.9-0.9-1-2.6,0-3.6L305.8,330.8z M335.7,224.9V204c9.2-4.3,12.7-6.3,15.9-9.5   c1.7,3.1,2.6,6.7,2.6,10.3C354.2,214.9,346,223.2,335.7,224.9z M405.8,225.5h-21.2c-2.7,0-4.7-2.6-4-5.2l6.9-26.3   c5,1.8,10.4,1.8,15.4,0l6.9,26.3C410.5,223,408.6,225.5,405.8,225.5L405.8,225.5z M395.2,163.6c4.6,0,8.4,3.8,8.4,8.4   c0,4.7-4.1,8.4-8.4,8.4c-4.2,0-8.3-3.6-8.3-8.4C386.9,167.4,390.6,163.6,395.2,163.6L395.2,163.6z M387.7,149.9   c-9.2,3.1-15.9,11.9-15.9,22.1c0,4.1,1.1,8,2.9,11.3l-5.7,21.6c0-0.1,0-0.2,0-0.3c0-9.3-3.7-18.5-10-25.3c0.2-1.4,0.4-2.9,0.4-4.4   c0-7,0-55.9,0-62.1l28.2-14.1L387.7,149.9L387.7,149.9z M125.5,82.6c-1-0.5-1.2-1.3-1.2-1.9s0.2-1.4,1.2-1.9l124.1-62.2   c4-2,8.8-2,12.9,0l113,56.6h-96.8c-3.2-9.5-12.1-16.3-22.6-16.3c-13.1,0-23.8,10.7-23.8,23.8s10.7,23.8,23.8,23.8   c10.5,0,19.5-6.9,22.6-16.3h96.8c-2.1,1.1-82.7,41.4-113,56.6c-4,2-8.8,2-12.9,0C243,141.5,130.1,84.9,125.5,82.6L125.5,82.6z    M264.8,80.6c0,4.9-4,8.8-8.8,8.8c-4.9,0-8.8-4-8.8-8.8c0-4.9,4-8.8,8.8-8.8C260.9,71.8,264.8,75.8,264.8,80.6z M176.3,224.9   c-10.3-1.7-18.5-9.9-18.5-20.1c0-3.4,1-6.9,2.8-10.1c2.4,2.4,4.8,4.2,15.6,9.2L176.3,224.9L176.3,224.9z M173.8,186   c-3.8-2.1-6.3-6.3-6.3-10.9v-4.6c22.1,10.8,45.7,17.3,70.4,19.5c4.1,0.4,7.8-2.7,8.1-6.8c0.4-4.1-2.7-7.8-6.8-8.1   c-25.3-2.3-49.4-9.5-71.7-21.4v-33.1l75.4,37.8c8.2,4.1,18,4.2,26.3,0l75.4-37.8v33.1c-22.3,12-46.4,19.2-71.7,21.4   c-4.1,0.4-7.2,4-6.8,8.1c0.4,4.1,4,7.2,8.1,6.8c24.6-2.2,48.3-8.8,70.4-19.5v4.6c0,4.6-2.5,8.9-6.3,10.9   c-26,14-54.5,20.7-82.2,20.7C227.6,206.6,199.2,199.6,173.8,186z M191.3,230.7v-20.5c21.1,7.7,42.9,11.4,64.7,11.4   s43.6-3.7,64.7-11.4v20.5c0,35.2-28.7,63.7-63.7,63.7C217.3,294.4,191.3,263.4,191.3,230.7L191.3,230.7z M206.1,330.5l28.3,28.3   c1,1,0.9,2.6,0,3.6l-12.9,12.9c-1,1-2.6,1-3.6,0l-33.2-33.2l-1.5-2.7L206.1,330.5z"></path>
</g>
</svg>
